<svg width="37" height="31" viewBox="0 0 37 31" fill="none" xmlns="http://www.w3.org/2000/svg">
<g clip-path="url(#clip0_135_3863)">
<path d="M2.66663 26.7501L5.04163 19.6251C3.91304 17.3685 3.62427 14.784 4.22701 12.3341C4.82974 9.88412 6.28463 7.72859 8.33132 6.25324C10.378 4.77789 12.8829 4.07901 15.3978 4.28166C17.9127 4.48431 20.2733 5.57528 22.0574 7.35932C23.8414 9.14336 24.9324 11.504 25.135 14.0189C25.3377 16.5338 24.6388 19.0387 23.1635 21.0854C21.6881 23.1321 19.5326 24.587 17.0826 25.1897C14.6326 25.7924 12.0481 25.5037 9.79163 24.3751L2.66663 26.7501Z" stroke="#00C7F2" stroke-width="2" stroke-linecap="round" stroke-linejoin="round"/>
<path d="M35.4194 27.0028L33.0444 19.8778C34.173 17.6212 34.4617 15.0367 33.859 12.5868C33.2563 10.1368 31.8014 7.98128 29.7547 6.50593C27.708 5.03057 25.2031 4.33169 22.6882 4.53435C20.1733 4.737 19.9166 5.4999 19.9166 5.4999C19.9166 5.4999 24.9166 9 24.9166 13.5C25.4166 18 23.9166 19.8778 23.9166 19.8778C22.9166 22 18.5534 24.8396 21.0034 25.4424C23.4533 26.0451 26.0378 25.7563 28.2944 24.6278L35.4194 27.0028Z" stroke="#00C7F2" stroke-width="2" stroke-linecap="round" stroke-linejoin="round"/>
</g>
<defs>
<clipPath id="clip0_135_3863">
<rect width="36" height="30" fill="white" transform="translate(0.666626 0.5)"/>
</clipPath>
</defs>
</svg>
