<svg width="36" height="31" viewBox="0 0 36 31" fill="none" xmlns="http://www.w3.org/2000/svg">
<path d="M28 13C28 20.5 18 28 18 28C18 28 8 20.5 8 13C8 10.3478 9.05357 7.8043 10.9289 5.92893C12.8043 4.05357 15.3478 3 18 3C20.6522 3 23.1957 4.05357 25.0711 5.92893C26.9464 7.8043 28 10.3478 28 13Z" stroke="black" stroke-width="2" stroke-linecap="round" stroke-linejoin="round"/>
<path d="M18 16.75C20.0711 16.75 21.75 15.0711 21.75 13C21.75 10.9289 20.0711 9.25 18 9.25C15.9289 9.25 14.25 10.9289 14.25 13C14.25 15.0711 15.9289 16.75 18 16.75Z" stroke="black" stroke-width="2" stroke-linecap="round" stroke-linejoin="round"/>
</svg>
