<svg width="165" height="44" viewBox="0 0 165 44" fill="none" xmlns="http://www.w3.org/2000/svg">
<path d="M58.4397 27.1906C58.1624 27.1906 57.9118 27.2408 57.688 27.3411C57.4642 27.4365 57.2744 27.5795 57.1187 27.7702C56.963 27.9559 56.8438 28.1842 56.761 28.4552C56.6783 28.7212 56.637 29.0223 56.637 29.3586C56.637 29.8002 56.7027 30.1841 56.834 30.5103C56.9703 30.8365 57.1698 31.0874 57.4325 31.2631C57.7001 31.4387 58.0334 31.5265 58.4324 31.5265C58.6611 31.5265 58.8777 31.5065 59.082 31.4663C59.2864 31.4262 59.4859 31.376 59.6805 31.3158V31.9029C59.4859 31.9782 59.2839 32.0334 59.0747 32.0685C58.8704 32.1037 58.6246 32.1212 58.3376 32.1212C57.8072 32.1212 57.3644 32.0083 57.0092 31.7825C56.654 31.5567 56.3864 31.2355 56.2064 30.8189C56.0312 30.4024 55.9436 29.9131 55.9436 29.351C55.9436 28.9445 55.9971 28.5732 56.1042 28.2369C56.2161 27.9007 56.3767 27.6096 56.5859 27.3637C56.8 27.1178 57.0627 26.9296 57.3741 26.7991C57.6855 26.6636 58.0432 26.5959 58.447 26.5959C58.7146 26.5959 58.9725 26.6235 59.2207 26.6787C59.4688 26.7339 59.6902 26.8117 59.8849 26.912L59.6221 27.4842C59.4615 27.4089 59.2815 27.3411 59.082 27.2809C58.8874 27.2207 58.6733 27.1906 58.4397 27.1906Z" fill="#E8E8E8"/>
<path d="M64.0877 32.046L63.46 30.3823H61.3945L60.7741 32.046H60.1099L62.1462 26.6486H62.7374L64.7664 32.046H64.0877ZM62.679 28.1541C62.6644 28.114 62.6401 28.0412 62.6061 27.9358C62.572 27.8304 62.5379 27.7225 62.5039 27.6121C62.4747 27.4967 62.4503 27.4089 62.4309 27.3487C62.4066 27.449 62.3798 27.5519 62.3506 27.6573C62.3263 27.7577 62.2995 27.8505 62.2703 27.9358C62.246 28.0211 62.2241 28.0939 62.2046 28.1541L61.6134 29.7801H63.2629L62.679 28.1541Z" fill="#E8E8E8"/>
<path d="M67.7784 32.046L66.0632 27.3336H66.034C66.0437 27.434 66.051 27.5619 66.0559 27.7175C66.0656 27.8731 66.0729 28.0437 66.0778 28.2294C66.0827 28.4101 66.0851 28.5957 66.0851 28.7865V32.046H65.4793V26.6712H66.45L68.0557 31.0749H68.0849L69.7198 26.6712H70.6832V32.046H70.0337V28.7413C70.0337 28.5656 70.0361 28.3925 70.041 28.2219C70.0458 28.0462 70.0531 27.8831 70.0628 27.7326C70.0726 27.577 70.0799 27.4465 70.0847 27.3411H70.0556L68.3185 32.046H67.7784Z" fill="#E8E8E8"/>
<path d="M72.1008 32.046V26.6712H72.7577V28.9445H73.5605C74.0471 28.9445 74.4291 29.0123 74.7064 29.1478C74.9886 29.2833 75.1881 29.4665 75.3049 29.6973C75.4266 29.9282 75.4874 30.1866 75.4874 30.4727C75.4874 30.7888 75.4217 31.0648 75.2903 31.3007C75.1638 31.5366 74.9643 31.7198 74.6918 31.8502C74.4194 31.9807 74.069 32.046 73.6408 32.046H72.1008ZM73.5824 31.4739C74.0009 31.4739 74.3099 31.391 74.5094 31.2254C74.7089 31.0598 74.8086 30.8089 74.8086 30.4727C74.8086 30.2418 74.76 30.0586 74.6626 29.9231C74.5702 29.7876 74.4266 29.6898 74.232 29.6296C74.0374 29.5693 73.7892 29.5392 73.4876 29.5392H72.7577V31.4739H73.5824ZM76.2902 32.046V26.6712H76.9471V32.046H76.2902Z" fill="#E8E8E8"/>
<path d="M81.9204 25C81.9009 25.2509 81.8401 25.4617 81.7379 25.6323C81.6406 25.803 81.4946 25.9309 81.3 26.0162C81.1054 26.1016 80.8523 26.1442 80.5409 26.1442C80.2247 26.1442 79.9692 26.1016 79.7746 26.0162C79.5848 25.9309 79.4461 25.8055 79.3586 25.6399C79.271 25.4692 79.2175 25.2559 79.198 25H79.7965C79.8208 25.271 79.8889 25.4542 80.0008 25.5495C80.1176 25.6399 80.3025 25.685 80.5555 25.685C80.7794 25.685 80.9545 25.6373 81.081 25.542C81.2124 25.4416 81.2903 25.261 81.3146 25H81.9204ZM78.3732 26.6712H78.9863V29.622C78.9863 29.7475 78.9839 29.8855 78.979 30.0361C78.979 30.1816 78.9766 30.3271 78.9717 30.4727C78.9669 30.6182 78.9596 30.7487 78.9498 30.8641C78.945 30.9745 78.9401 31.0598 78.9352 31.12H78.9644L81.8328 26.6712H82.5627V32.046H81.9496V29.1252C81.9496 28.9897 81.952 28.8442 81.9569 28.6886C81.9617 28.528 81.9666 28.3749 81.9715 28.2294C81.9812 28.0788 81.9885 27.9459 81.9934 27.8304C81.9982 27.715 82.0031 27.6297 82.008 27.5745H81.9788L79.1031 32.046H78.3732V26.6712Z" fill="#E8E8E8"/>
<path d="M86.8121 32.046V26.6712H89.9067V27.2658H87.469V28.9445H88.2426C88.7633 28.9445 89.1671 29.0123 89.4542 29.1478C89.7413 29.2783 89.9408 29.4589 90.0527 29.6898C90.1646 29.9156 90.2206 30.1766 90.2206 30.4727C90.2206 30.7989 90.1573 31.0799 90.0308 31.3158C89.9092 31.5516 89.7097 31.7323 89.4323 31.8578C89.155 31.9832 88.79 32.046 88.3375 32.046H86.8121ZM88.2718 31.4663C88.7389 31.4663 89.0674 31.386 89.2572 31.2254C89.4469 31.0598 89.5418 30.8089 89.5418 30.4727C89.5418 30.2418 89.4956 30.0586 89.4031 29.9231C89.3155 29.7826 89.1696 29.6823 88.9652 29.622C88.7657 29.5618 88.4981 29.5317 88.1624 29.5317H87.469V31.4663H88.2718Z" fill="#E8E8E8"/>
<path d="M95.8495 29.351C95.8495 29.7676 95.7984 30.1465 95.6963 30.4877C95.5941 30.824 95.4408 31.115 95.2364 31.3609C95.0369 31.6068 94.7864 31.795 94.4847 31.9255C94.1879 32.056 93.8424 32.1212 93.4483 32.1212C93.0396 32.1212 92.6843 32.056 92.3827 31.9255C92.081 31.79 91.8304 31.6018 91.6309 31.3609C91.4314 31.115 91.283 30.8214 91.1857 30.4802C91.0884 30.1389 91.0397 29.76 91.0397 29.3435C91.0397 28.7915 91.1273 28.3097 91.3025 27.8982C91.4776 27.4867 91.7428 27.1655 92.098 26.9346C92.4581 26.7038 92.9106 26.5884 93.4556 26.5884C93.9762 26.5884 94.4141 26.7038 94.7693 26.9346C95.1245 27.1605 95.3921 27.4816 95.5722 27.8982C95.7571 28.3097 95.8495 28.794 95.8495 29.351ZM91.7331 29.351C91.7331 29.8027 91.7939 30.1916 91.9156 30.5178C92.0372 30.844 92.2245 31.095 92.4776 31.2706C92.7354 31.4463 93.059 31.5341 93.4483 31.5341C93.8424 31.5341 94.1635 31.4463 94.4117 31.2706C94.6647 31.095 94.852 30.844 94.9737 30.5178C95.0953 30.1916 95.1562 29.8027 95.1562 29.351C95.1562 28.6735 95.0199 28.1441 94.7474 27.7627C94.4749 27.3763 94.0443 27.183 93.4556 27.183C93.0614 27.183 92.7354 27.2709 92.4776 27.4465C92.2245 27.6171 92.0372 27.8656 91.9156 28.1918C91.7939 28.5129 91.7331 28.8994 91.7331 29.351Z" fill="#E8E8E8"/>
<path d="M100.613 32.046H99.9566V27.2658H98.3071C98.273 27.5419 98.2365 27.8329 98.1976 28.1391C98.1587 28.4402 98.1173 28.7388 98.0735 29.0349C98.0346 29.331 97.9957 29.6095 97.9568 29.8704C97.9178 30.1314 97.8789 30.3597 97.84 30.5555C97.7767 30.8917 97.6989 31.1778 97.6064 31.4136C97.514 31.6495 97.3899 31.8277 97.2342 31.9481C97.0834 32.0685 96.8839 32.1288 96.6357 32.1288C96.553 32.1288 96.4678 32.1187 96.3803 32.0987C96.2976 32.0836 96.2246 32.0635 96.1613 32.0384V31.4739C96.2148 31.4989 96.2757 31.5215 96.3438 31.5416C96.4119 31.5567 96.4849 31.5642 96.5627 31.5642C96.7087 31.5642 96.823 31.504 96.9058 31.3835C96.9934 31.2581 97.0615 31.105 97.1101 30.9243C97.1588 30.7386 97.2001 30.5555 97.2342 30.3748C97.2634 30.2293 97.2975 30.0361 97.3364 29.7952C97.3753 29.5493 97.4167 29.2632 97.4605 28.937C97.5091 28.6108 97.5578 28.257 97.6064 27.8756C97.66 27.4892 97.7111 27.0877 97.7597 26.6712H100.613V32.046Z" fill="#E8E8E8"/>
<path d="M102.029 32.046V26.6712H102.686V28.9445H103.664C104.151 28.9445 104.538 29.0123 104.825 29.1478C105.112 29.2833 105.319 29.4665 105.445 29.6973C105.572 29.9282 105.635 30.1866 105.635 30.4727C105.635 30.7888 105.564 31.0648 105.423 31.3007C105.287 31.5366 105.08 31.7198 104.803 31.8502C104.526 31.9807 104.173 32.046 103.745 32.046H102.029ZM103.679 31.4663C104.102 31.4663 104.421 31.386 104.635 31.2254C104.849 31.0598 104.956 30.8089 104.956 30.4727C104.956 30.2418 104.903 30.0586 104.796 29.9231C104.693 29.7826 104.54 29.6823 104.336 29.622C104.136 29.5618 103.886 29.5317 103.584 29.5317H102.686V31.4663H103.679Z" fill="#E8E8E8"/>
<path d="M112.858 32.046H106.712V26.6712H107.369V31.4437H109.449V26.6712H110.106V31.4437H112.194V26.6712H112.858V32.046Z" fill="#E8E8E8"/>
<path d="M118.829 29.351C118.829 29.7676 118.778 30.1465 118.676 30.4877C118.573 30.824 118.42 31.115 118.216 31.3609C118.016 31.6068 117.766 31.795 117.464 31.9255C117.167 32.056 116.822 32.1212 116.428 32.1212C116.019 32.1212 115.664 32.056 115.362 31.9255C115.06 31.79 114.81 31.6018 114.61 31.3609C114.411 31.115 114.262 30.8214 114.165 30.4802C114.068 30.1389 114.019 29.76 114.019 29.3435C114.019 28.7915 114.107 28.3097 114.282 27.8982C114.457 27.4867 114.722 27.1655 115.077 26.9346C115.437 26.7038 115.89 26.5884 116.435 26.5884C116.955 26.5884 117.393 26.7038 117.749 26.9346C118.104 27.1605 118.371 27.4816 118.551 27.8982C118.736 28.3097 118.829 28.794 118.829 29.351ZM114.712 29.351C114.712 29.8027 114.773 30.1916 114.895 30.5178C115.016 30.844 115.204 31.095 115.457 31.2706C115.715 31.4463 116.038 31.5341 116.428 31.5341C116.822 31.5341 117.143 31.4463 117.391 31.2706C117.644 31.095 117.831 30.844 117.953 30.5178C118.075 30.1916 118.135 29.8027 118.135 29.351C118.135 28.6735 117.999 28.1441 117.727 27.7627C117.454 27.3763 117.024 27.183 116.435 27.183C116.041 27.183 115.715 27.2709 115.457 27.4465C115.204 27.6171 115.016 27.8656 114.895 28.1918C114.773 28.5129 114.712 28.8994 114.712 29.351Z" fill="#E8E8E8"/>
<path d="M123.538 25C123.519 25.2509 123.458 25.4617 123.356 25.6323C123.258 25.803 123.112 25.9309 122.918 26.0162C122.723 26.1016 122.47 26.1442 122.159 26.1442C121.843 26.1442 121.587 26.1016 121.392 26.0162C121.203 25.9309 121.064 25.8055 120.976 25.6399C120.889 25.4692 120.835 25.2559 120.816 25H121.414C121.439 25.271 121.507 25.4542 121.619 25.5495C121.735 25.6399 121.92 25.685 122.173 25.685C122.397 25.685 122.572 25.6373 122.699 25.542C122.83 25.4416 122.908 25.261 122.932 25H123.538ZM119.991 26.6712H120.604V29.622C120.604 29.7475 120.602 29.8855 120.597 30.0361C120.597 30.1816 120.594 30.3271 120.59 30.4727C120.585 30.6182 120.577 30.7487 120.568 30.8641C120.563 30.9745 120.558 31.0598 120.553 31.12H120.582L123.451 26.6712H124.181V32.046H123.567V29.1252C123.567 28.9897 123.57 28.8442 123.575 28.6886C123.58 28.528 123.584 28.3749 123.589 28.2294C123.599 28.0788 123.606 27.9459 123.611 27.8304C123.616 27.715 123.621 27.6297 123.626 27.5745H123.597L120.721 32.046H119.991V26.6712Z" fill="#E8E8E8"/>
<path d="M129.919 26.6712C130.352 26.6712 130.714 26.7138 131.006 26.7991C131.303 26.8844 131.525 27.025 131.671 27.2207C131.821 27.4164 131.897 27.6774 131.897 28.0036C131.897 28.2143 131.858 28.4025 131.78 28.5681C131.707 28.7287 131.595 28.8642 131.444 28.9746C131.298 29.08 131.118 29.1528 130.904 29.1929V29.2306C131.123 29.2657 131.32 29.331 131.495 29.4263C131.675 29.5217 131.817 29.6572 131.919 29.8328C132.021 30.0085 132.072 30.2368 132.072 30.5178C132.072 30.844 131.999 31.1226 131.853 31.3534C131.707 31.5792 131.498 31.7524 131.225 31.8728C130.958 31.9882 130.637 32.046 130.262 32.046H128.43V26.6712H129.919ZM130.05 28.9596C130.498 28.9596 130.804 28.8868 130.97 28.7413C131.135 28.5907 131.218 28.3699 131.218 28.0788C131.218 27.7828 131.116 27.572 130.911 27.4465C130.712 27.316 130.391 27.2508 129.948 27.2508H129.087V28.9596H130.05ZM129.087 29.5242V31.4739H130.138C130.6 31.4739 130.921 31.381 131.101 31.1953C131.281 31.0096 131.371 30.7662 131.371 30.4651C131.371 30.2744 131.33 30.1088 131.247 29.9683C131.169 29.8278 131.036 29.7199 130.846 29.6446C130.661 29.5643 130.408 29.5242 130.087 29.5242H129.087Z" fill="#E8E8E8"/>
<path d="M133.177 32.046V26.6712H133.834V28.9445H134.637C135.123 28.9445 135.505 29.0123 135.783 29.1478C136.065 29.2833 136.264 29.4665 136.381 29.6973C136.503 29.9282 136.563 30.1866 136.563 30.4727C136.563 30.7888 136.498 31.0648 136.366 31.3007C136.24 31.5366 136.04 31.7198 135.768 31.8502C135.495 31.9807 135.145 32.046 134.717 32.046H133.177ZM134.659 31.4739C135.077 31.4739 135.386 31.391 135.585 31.2254C135.785 31.0598 135.885 30.8089 135.885 30.4727C135.885 30.2418 135.836 30.0586 135.739 29.9231C135.646 29.7876 135.503 29.6898 135.308 29.6296C135.113 29.5693 134.865 29.5392 134.564 29.5392H133.834V31.4739H134.659ZM137.366 32.046V26.6712H138.023V32.046H137.366Z" fill="#E8E8E8"/>
<path d="M139.442 32.046V26.6712H142.537V27.2658H140.099V28.9445H140.873C141.393 28.9445 141.797 29.0123 142.084 29.1478C142.371 29.2783 142.571 29.4589 142.683 29.6898C142.795 29.9156 142.851 30.1766 142.851 30.4727C142.851 30.7989 142.787 31.0799 142.661 31.3158C142.539 31.5516 142.34 31.7323 142.062 31.8578C141.785 31.9832 141.42 32.046 140.967 32.046H139.442ZM140.902 31.4663C141.369 31.4663 141.697 31.386 141.887 31.2254C142.077 31.0598 142.172 30.8089 142.172 30.4727C142.172 30.2418 142.126 30.0586 142.033 29.9231C141.945 29.7826 141.799 29.6823 141.595 29.622C141.396 29.5618 141.128 29.5317 140.792 29.5317H140.099V31.4663H140.902Z" fill="#E8E8E8"/>
<path d="M148.479 29.351C148.479 29.7676 148.428 30.1465 148.326 30.4877C148.224 30.824 148.071 31.115 147.866 31.3609C147.667 31.6068 147.416 31.795 147.115 31.9255C146.818 32.056 146.472 32.1212 146.078 32.1212C145.669 32.1212 145.314 32.056 145.013 31.9255C144.711 31.79 144.46 31.6018 144.261 31.3609C144.061 31.115 143.913 30.8214 143.816 30.4802C143.718 30.1389 143.67 29.76 143.67 29.3435C143.67 28.7915 143.757 28.3097 143.932 27.8982C144.108 27.4867 144.373 27.1655 144.728 26.9346C145.088 26.7038 145.541 26.5884 146.086 26.5884C146.606 26.5884 147.044 26.7038 147.399 26.9346C147.754 27.1605 148.022 27.4816 148.202 27.8982C148.387 28.3097 148.479 28.794 148.479 29.351ZM144.363 29.351C144.363 29.8027 144.424 30.1916 144.545 30.5178C144.667 30.844 144.854 31.095 145.107 31.2706C145.365 31.4463 145.689 31.5341 146.078 31.5341C146.472 31.5341 146.793 31.4463 147.042 31.2706C147.295 31.095 147.482 30.844 147.604 30.5178C147.725 30.1916 147.786 29.8027 147.786 29.351C147.786 28.6735 147.65 28.1441 147.377 27.7627C147.105 27.3763 146.674 27.183 146.086 27.183C145.691 27.183 145.365 27.2709 145.107 27.4465C144.854 27.6171 144.667 27.8656 144.545 28.1918C144.424 28.5129 144.363 28.8994 144.363 29.351Z" fill="#E8E8E8"/>
<path d="M151.014 26.6712C151.695 26.6712 152.191 26.8092 152.503 27.0852C152.814 27.3612 152.97 27.7501 152.97 28.252C152.97 28.4728 152.933 28.6861 152.86 28.8918C152.792 29.0926 152.678 29.2732 152.517 29.4338C152.357 29.5944 152.143 29.7224 151.875 29.8178C151.608 29.9081 151.279 29.9532 150.89 29.9532H150.291V32.046H149.634V26.6712H151.014ZM150.956 27.2508H150.291V29.3736H150.817C151.148 29.3736 151.423 29.3385 151.642 29.2682C151.861 29.1929 152.024 29.075 152.131 28.9144C152.238 28.7538 152.291 28.5431 152.291 28.2821C152.291 27.9358 152.184 27.6774 151.97 27.5067C151.756 27.3361 151.418 27.2508 150.956 27.2508Z" fill="#E8E8E8"/>
<path d="M67.0427 37.7294C66.7654 37.7294 66.5148 37.7796 66.2909 37.88C66.0671 37.9753 65.8774 38.1183 65.7217 38.309C65.5659 38.4947 65.4467 38.7231 65.364 38.9941C65.2813 39.26 65.2399 39.5611 65.2399 39.8974C65.2399 40.339 65.3056 40.7229 65.437 41.0491C65.5732 41.3753 65.7727 41.6263 66.0355 41.8019C66.3031 41.9775 66.6364 42.0654 67.0354 42.0654C67.2641 42.0654 67.4806 42.0453 67.685 42.0052C67.8893 41.965 68.0888 41.9148 68.2835 41.8546V42.4418C68.0888 42.517 67.8869 42.5722 67.6777 42.6074C67.4733 42.6425 67.2276 42.6601 66.9405 42.6601C66.4102 42.6601 65.9674 42.5471 65.6122 42.3213C65.257 42.0955 64.9894 41.7743 64.8093 41.3578C64.6342 40.9412 64.5466 40.4519 64.5466 39.8899C64.5466 39.4834 64.6001 39.112 64.7071 38.7758C64.8191 38.4395 64.9796 38.1484 65.1889 37.9025C65.4029 37.6566 65.6657 37.4684 65.9771 37.338C66.2885 37.2025 66.6461 37.1347 67.05 37.1347C67.3176 37.1347 67.5755 37.1623 67.8237 37.2175C68.0718 37.2727 68.2932 37.3505 68.4878 37.4509L68.2251 38.023C68.0645 37.9477 67.8845 37.88 67.685 37.8197C67.4904 37.7595 67.2763 37.7294 67.0427 37.7294Z" fill="#E8E8E8"/>
<path d="M72.333 42.5848H69.4209V37.21H72.333V37.8047H70.0777V39.4834H72.2016V40.0705H70.0777V41.9901H72.333V42.5848Z" fill="#E8E8E8"/>
<path d="M74.8559 37.21C75.5371 37.21 76.0334 37.348 76.3448 37.624C76.6562 37.9 76.8119 38.289 76.8119 38.7908C76.8119 39.0116 76.7754 39.2249 76.7024 39.4307C76.6343 39.6314 76.52 39.8121 76.3594 39.9727C76.1988 40.1333 75.9847 40.2612 75.7171 40.3566C75.4495 40.4469 75.1211 40.4921 74.7318 40.4921H74.1333V42.5848H73.4764V37.21H74.8559ZM74.7975 37.7896H74.1333V39.9124H74.6588C74.9897 39.9124 75.2646 39.8773 75.4836 39.8071C75.7025 39.7318 75.8655 39.6138 75.9726 39.4532C76.0796 39.2927 76.1331 39.0819 76.1331 38.8209C76.1331 38.4746 76.0261 38.2162 75.812 38.0456C75.5979 37.8749 75.2597 37.7896 74.7975 37.7896Z" fill="#E8E8E8"/>
<path d="M79.3845 37.21C79.8175 37.21 80.18 37.2526 80.4719 37.338C80.7688 37.4233 80.9901 37.5638 81.1361 37.7595C81.287 37.9552 81.3624 38.2162 81.3624 38.5424C81.3624 38.7532 81.3235 38.9414 81.2456 39.107C81.1726 39.2676 81.0607 39.4031 80.9099 39.5135C80.7639 39.6189 80.5839 39.6916 80.3698 39.7318V39.7694C80.5887 39.8045 80.7858 39.8698 80.961 39.9651C81.141 40.0605 81.2821 40.196 81.3843 40.3716C81.4865 40.5473 81.5375 40.7756 81.5375 41.0567C81.5375 41.3829 81.4646 41.6614 81.3186 41.8922C81.1726 42.1181 80.9634 42.2912 80.6909 42.4116C80.4233 42.5271 80.1021 42.5848 79.7275 42.5848H77.8955V37.21H79.3845ZM79.5158 39.4984C79.9635 39.4984 80.27 39.4256 80.4355 39.2801C80.6009 39.1296 80.6836 38.9087 80.6836 38.6177C80.6836 38.3216 80.5814 38.1108 80.3771 37.9853C80.1776 37.8549 79.8564 37.7896 79.4136 37.7896H78.5524V39.4984H79.5158ZM78.5524 40.063V42.0127H79.6034C80.0657 42.0127 80.3868 41.9198 80.5668 41.7342C80.7469 41.5485 80.8369 41.3051 80.8369 41.004C80.8369 40.8133 80.7955 40.6476 80.7128 40.5071C80.6349 40.3666 80.5011 40.2587 80.3114 40.1834C80.1265 40.1031 79.8735 40.063 79.5523 40.063H78.5524Z" fill="#E8E8E8"/>
<path d="M82.6498 37.21H83.2629V40.1609C83.2629 40.2863 83.2604 40.4243 83.2556 40.5749C83.2556 40.7204 83.2531 40.866 83.2483 41.0115C83.2434 41.157 83.2361 41.2875 83.2264 41.4029C83.2215 41.5133 83.2166 41.5987 83.2118 41.6589H83.241L86.1093 37.21H86.8392V42.5848H86.2261V39.664C86.2261 39.5285 86.2285 39.383 86.2334 39.2274C86.2383 39.0668 86.2431 38.9138 86.248 38.7682C86.2577 38.6177 86.265 38.4847 86.2699 38.3693C86.2748 38.2538 86.2796 38.1685 86.2845 38.1133H86.2553L83.3796 42.5848H82.6498V37.21Z" fill="#E8E8E8"/>
<path d="M90.4781 37.7294C90.2008 37.7294 89.9502 37.7796 89.7264 37.88C89.5025 37.9753 89.3128 38.1183 89.1571 38.309C89.0014 38.4947 88.8822 38.7231 88.7994 38.9941C88.7167 39.26 88.6754 39.5611 88.6754 39.8974C88.6754 40.339 88.7411 40.7229 88.8724 41.0491C89.0087 41.3753 89.2082 41.6263 89.4709 41.8019C89.7385 41.9775 90.0718 42.0654 90.4708 42.0654C90.6995 42.0654 90.916 42.0453 91.1204 42.0052C91.3248 41.965 91.5243 41.9148 91.7189 41.8546V42.4418C91.5243 42.517 91.3223 42.5722 91.1131 42.6074C90.9088 42.6425 90.663 42.6601 90.3759 42.6601C89.8456 42.6601 89.4028 42.5471 89.0476 42.3213C88.6924 42.0955 88.4248 41.7743 88.2448 41.3578C88.0696 40.9412 87.982 40.4519 87.982 39.8899C87.982 39.4834 88.0355 39.112 88.1426 38.7758C88.2545 38.4395 88.4151 38.1484 88.6243 37.9025C88.8384 37.6566 89.1011 37.4684 89.4125 37.338C89.7239 37.2025 90.0816 37.1347 90.4854 37.1347C90.753 37.1347 91.0109 37.1623 91.2591 37.2175C91.5072 37.2727 91.7286 37.3505 91.9233 37.4509L91.6605 38.023C91.4999 37.9477 91.3199 37.88 91.1204 37.8197C90.9258 37.7595 90.7117 37.7294 90.4781 37.7294Z" fill="#E8E8E8"/>
<path d="M96.8413 42.5848H96.1845V40.0781H93.5132V42.5848H92.8563V37.21H93.5132V39.4834H96.1845V37.21H96.8413V42.5848Z" fill="#E8E8E8"/>
<path d="M98.2661 42.5848V37.21H98.923V39.4834H99.7258C100.212 39.4834 100.594 39.5511 100.872 39.6866C101.154 39.8221 101.353 40.0053 101.47 40.2361C101.592 40.467 101.653 40.7254 101.653 41.0115C101.653 41.3277 101.587 41.6037 101.456 41.8395C101.329 42.0754 101.13 42.2586 100.857 42.3891C100.585 42.5195 100.234 42.5848 99.8061 42.5848H98.2661ZM99.7477 42.0127C100.166 42.0127 100.475 41.9299 100.675 41.7643C100.874 41.5987 100.974 41.3477 100.974 41.0115C100.974 40.7806 100.925 40.5975 100.828 40.462C100.735 40.3265 100.592 40.2286 100.397 40.1684C100.203 40.1082 99.9545 40.0781 99.6528 40.0781H98.923V42.0127H99.7477ZM102.456 42.5848V37.21H103.112V42.5848H102.456Z" fill="#E8E8E8"/>
<path d="M108.071 42.5848H107.327L105.947 40.2512L104.546 42.5848H103.852L105.582 39.7845L103.962 37.21H104.692L105.969 39.3178L107.254 37.21H107.947L106.334 39.7694L108.071 42.5848Z" fill="#E8E8E8"/>
<path d="M116.199 41.9901V44H115.571V42.5848H111.652V37.21H112.309V41.9826H114.914V37.21H115.564V41.9901H116.199Z" fill="#E8E8E8"/>
<path d="M119.974 42.5848H117.061V37.21H119.974V37.8047H117.718V39.4834H119.842V40.0705H117.718V41.9901H119.974V42.5848Z" fill="#E8E8E8"/>
<path d="M125.102 42.5848H124.445V40.0781H121.774V42.5848H121.117V37.21H121.774V39.4834H124.445V37.21H125.102V42.5848Z" fill="#E8E8E8"/>
<path d="M128.176 42.5848H127.52V37.8047H125.892V37.21H129.797V37.8047H128.176V42.5848Z" fill="#E8E8E8"/>
<path d="M131.962 37.21C132.643 37.21 133.139 37.348 133.451 37.624C133.762 37.9 133.918 38.289 133.918 38.7908C133.918 39.0116 133.881 39.2249 133.808 39.4307C133.74 39.6314 133.626 39.8121 133.465 39.9727C133.305 40.1333 133.091 40.2612 132.823 40.3566C132.556 40.4469 132.227 40.4921 131.838 40.4921H131.239V42.5848H130.582V37.21H131.962ZM131.904 37.7896H131.239V39.9124H131.765C132.096 39.9124 132.371 39.8773 132.59 39.8071C132.809 39.7318 132.972 39.6138 133.079 39.4532C133.186 39.2927 133.239 39.0819 133.239 38.8209C133.239 38.4746 133.132 38.2162 132.918 38.0456C132.704 37.8749 132.366 37.7896 131.904 37.7896Z" fill="#E8E8E8"/>
<path d="M139.549 39.8899C139.549 40.3064 139.498 40.6853 139.395 41.0265C139.293 41.3628 139.14 41.6539 138.936 41.8998C138.736 42.1457 138.485 42.3339 138.184 42.4643C137.887 42.5948 137.541 42.6601 137.147 42.6601C136.739 42.6601 136.383 42.5948 136.082 42.4643C135.78 42.3288 135.53 42.1407 135.33 41.8998C135.131 41.6539 134.982 41.3603 134.885 41.019C134.787 40.6778 134.739 40.2989 134.739 39.8823C134.739 39.3303 134.826 38.8485 135.002 38.437C135.177 38.0255 135.442 37.7043 135.797 37.4735C136.157 37.2426 136.61 37.1272 137.155 37.1272C137.675 37.1272 138.113 37.2426 138.468 37.4735C138.824 37.6993 139.091 38.0205 139.271 38.437C139.456 38.8485 139.549 39.3328 139.549 39.8899ZM135.432 39.8899C135.432 40.3415 135.493 40.7305 135.615 41.0567C135.736 41.3829 135.924 41.6338 136.177 41.8094C136.435 41.9851 136.758 42.0729 137.147 42.0729C137.541 42.0729 137.863 41.9851 138.111 41.8094C138.364 41.6338 138.551 41.3829 138.673 41.0567C138.794 40.7305 138.855 40.3415 138.855 39.8899C138.855 39.2124 138.719 38.6829 138.447 38.3015C138.174 37.9151 137.743 37.7219 137.155 37.7219C136.761 37.7219 136.435 37.8097 136.177 37.9853C135.924 38.156 135.736 38.4044 135.615 38.7306C135.493 39.0518 135.432 39.4382 135.432 39.8899Z" fill="#E8E8E8"/>
<path d="M142.193 37.21C142.626 37.21 142.988 37.2526 143.28 37.338C143.577 37.4233 143.798 37.5638 143.944 37.7595C144.095 37.9552 144.17 38.2162 144.17 38.5424C144.17 38.7532 144.132 38.9414 144.054 39.107C143.981 39.2676 143.869 39.4031 143.718 39.5135C143.572 39.6189 143.392 39.6916 143.178 39.7318V39.7694C143.397 39.8045 143.594 39.8698 143.769 39.9651C143.949 40.0605 144.09 40.196 144.192 40.3716C144.295 40.5473 144.346 40.7756 144.346 41.0567C144.346 41.3829 144.273 41.6614 144.127 41.8922C143.981 42.1181 143.771 42.2912 143.499 42.4116C143.231 42.5271 142.91 42.5848 142.536 42.5848H140.704V37.21H142.193ZM142.324 39.4984C142.772 39.4984 143.078 39.4256 143.244 39.2801C143.409 39.1296 143.492 38.9087 143.492 38.6177C143.492 38.3216 143.39 38.1108 143.185 37.9853C142.986 37.8549 142.665 37.7896 142.222 37.7896H141.36V39.4984H142.324ZM141.36 40.063V42.0127H142.411C142.874 42.0127 143.195 41.9198 143.375 41.7342C143.555 41.5485 143.645 41.3051 143.645 41.004C143.645 40.8133 143.604 40.6476 143.521 40.5071C143.443 40.3666 143.309 40.2587 143.119 40.1834C142.935 40.1031 142.682 40.063 142.36 40.063H141.36Z" fill="#E8E8E8"/>
<path d="M65.2744 15.3965C65.2744 15.9004 65.1816 16.3721 64.996 16.8115C64.8103 17.2451 64.5551 17.626 64.2302 17.9541C63.9112 18.2764 63.5341 18.5312 63.099 18.7188C62.6697 18.9062 62.2085 19 61.7154 19H50.873V17.1982H61.7154C61.9649 17.1982 62.1969 17.1514 62.4116 17.0576C62.6262 16.9639 62.8118 16.835 62.9685 16.6709C63.1309 16.5068 63.2585 16.3164 63.3513 16.0996C63.4442 15.877 63.4906 15.6426 63.4906 15.3965C63.4906 15.1504 63.4442 14.9189 63.3513 14.7021C63.2585 14.4854 63.1309 14.2949 62.9685 14.1309C62.8118 13.9668 62.6262 13.8379 62.4116 13.7441C62.1969 13.6504 61.9649 13.6035 61.7154 13.6035H54.4408C53.9535 13.6035 53.4923 13.5098 53.0572 13.3223C52.6221 13.1348 52.2421 12.8799 51.9173 12.5576C51.5982 12.2295 51.3429 11.8457 51.1515 11.4062C50.9659 10.9668 50.873 10.498 50.873 10C50.873 9.50781 50.9659 9.04199 51.1515 8.60254C51.3429 8.16309 51.5982 7.78223 51.9173 7.45996C52.2421 7.13184 52.6221 6.87402 53.0572 6.68652C53.4923 6.49316 53.9535 6.39648 54.4408 6.39648H64.3868V8.19824H54.4408C54.1971 8.19824 53.9651 8.24512 53.7446 8.33887C53.53 8.43262 53.3414 8.56152 53.179 8.72559C53.0166 8.88965 52.8889 9.08301 52.7961 9.30566C52.7033 9.52246 52.6569 9.75391 52.6569 10C52.6569 10.2461 52.7033 10.4805 52.7961 10.7031C52.8889 10.9199 53.0166 11.1104 53.179 11.2744C53.3414 11.4385 53.53 11.5674 53.7446 11.6611C53.9651 11.7549 54.1971 11.8018 54.4408 11.8018H61.7154C62.2085 11.8018 62.6697 11.8984 63.099 12.0918C63.5341 12.2793 63.9112 12.5371 64.2302 12.8652C64.5551 13.1875 64.8103 13.5684 64.996 14.0078C65.1816 14.4414 65.2744 14.9043 65.2744 15.3965Z" fill="#E8E8E8"/>
<path d="M80.2762 19H67.3715V6.39648H80.2762V8.19824H69.1554V17.1982H80.2762V19ZM78.7621 13.6035H70.043V11.8018H78.7621V13.6035Z" fill="#E8E8E8"/>
<path d="M96.8965 19H94.4862L90.7444 15.3965H85.2797V13.6211H92.4413C92.8125 13.6211 93.1606 13.5508 93.4855 13.4102C93.8103 13.2637 94.0917 13.0674 94.3295 12.8213C94.5732 12.5752 94.7646 12.2881 94.9038 11.96C95.0431 11.626 95.1127 11.2715 95.1127 10.8965C95.1127 10.5215 95.0431 10.1699 94.9038 9.8418C94.7646 9.51367 94.5732 9.22949 94.3295 8.98926C94.0917 8.74316 93.8103 8.5498 93.4855 8.40918C93.1606 8.26855 92.8125 8.19824 92.4413 8.19824H84.279V19H82.4952V6.39648H92.4413C93.0562 6.39648 93.6334 6.5166 94.1729 6.75684C94.7124 6.99121 95.1823 7.31348 95.5826 7.72363C95.9887 8.12793 96.3077 8.60254 96.5398 9.14746C96.7776 9.69238 96.8965 10.2754 96.8965 10.8965C96.8965 11.459 96.8008 11.9922 96.6094 12.4961C96.4179 12.9941 96.154 13.4424 95.8175 13.8408C95.4811 14.2334 95.0837 14.5615 94.6254 14.8252C94.1729 15.083 93.6827 15.2559 93.1548 15.3438L96.8965 19Z" fill="#E8E8E8"/>
<path d="M112.829 6.39648L106.268 19H104.232L97.6797 6.39648H99.7072L105.25 17.0576L110.793 6.39648H112.829Z" fill="#E8E8E8"/>
<path d="M116.371 19H114.587V6.39648H116.371V19Z" fill="#E8E8E8"/>
<path d="M132.434 19H124.403C123.538 19 122.752 18.8359 122.045 18.5078C121.337 18.1797 120.731 17.7314 120.226 17.1631C119.727 16.5947 119.341 15.9268 119.069 15.1592C118.796 14.3916 118.66 13.5713 118.66 12.6982C118.66 11.8311 118.796 11.0166 119.069 10.2549C119.341 9.4873 119.727 8.81934 120.226 8.25098C120.731 7.67676 121.337 7.22559 122.045 6.89746C122.752 6.56348 123.538 6.39648 124.403 6.39648H132.434V8.19824H124.403C123.788 8.19824 123.234 8.31836 122.741 8.55859C122.253 8.79297 121.839 9.11523 121.496 9.52539C121.16 9.92969 120.899 10.4043 120.713 10.9492C120.533 11.4941 120.443 12.0771 120.443 12.6982C120.443 13.3193 120.533 13.9053 120.713 14.4561C120.899 15.001 121.16 15.4785 121.496 15.8887C121.839 16.293 122.253 16.6123 122.741 16.8467C123.234 17.0811 123.788 17.1982 124.403 17.1982H132.434V19Z" fill="#E8E8E8"/>
<path d="M147.506 19H134.601V6.39648H147.506V8.19824H136.385V17.1982H147.506V19ZM145.992 13.6035H137.273V11.8018H145.992V13.6035Z" fill="#E8E8E8"/>
<path d="M163.5 15.3965C163.5 15.9004 163.407 16.3721 163.221 16.8115C163.036 17.2451 162.78 17.626 162.455 17.9541C162.136 18.2764 161.759 18.5312 161.324 18.7188C160.895 18.9062 160.434 19 159.941 19H149.098V17.1982H159.941C160.19 17.1982 160.422 17.1514 160.637 17.0576C160.851 16.9639 161.037 16.835 161.194 16.6709C161.356 16.5068 161.484 16.3164 161.577 16.0996C161.669 15.877 161.716 15.6426 161.716 15.3965C161.716 15.1504 161.669 14.9189 161.577 14.7021C161.484 14.4854 161.356 14.2949 161.194 14.1309C161.037 13.9668 160.851 13.8379 160.637 13.7441C160.422 13.6504 160.19 13.6035 159.941 13.6035H152.666C152.179 13.6035 151.717 13.5098 151.282 13.3223C150.847 13.1348 150.467 12.8799 150.142 12.5576C149.823 12.2295 149.568 11.8457 149.377 11.4062C149.191 10.9668 149.098 10.498 149.098 10C149.098 9.50781 149.191 9.04199 149.377 8.60254C149.568 8.16309 149.823 7.78223 150.142 7.45996C150.467 7.13184 150.847 6.87402 151.282 6.68652C151.717 6.49316 152.179 6.39648 152.666 6.39648H162.612V8.19824H152.666C152.422 8.19824 152.19 8.24512 151.97 8.33887C151.755 8.43262 151.567 8.56152 151.404 8.72559C151.242 8.88965 151.114 9.08301 151.021 9.30566C150.929 9.52246 150.882 9.75391 150.882 10C150.882 10.2461 150.929 10.4805 151.021 10.7031C151.114 10.9199 151.242 11.1104 151.404 11.2744C151.567 11.4385 151.755 11.5674 151.97 11.6611C152.19 11.7549 152.422 11.8018 152.666 11.8018H159.941C160.434 11.8018 160.895 11.8984 161.324 12.0918C161.759 12.2793 162.136 12.5371 162.455 12.8652C162.78 13.1875 163.036 13.5684 163.221 14.0078C163.407 14.4414 163.5 14.9043 163.5 15.3965Z" fill="#E8E8E8"/>
<g clip-path="url(#clip0_4_983)">
<path d="M31.3003 0H13.2625C6.21399 0 0.5 5.77133 0.5 12.8906V31.1094C0.5 38.2287 6.21399 44 13.2625 44H31.3003C38.3488 44 44.0628 38.2287 44.0628 31.1094V12.8906C44.0628 5.77133 38.3488 0 31.3003 0Z" fill="url(#paint0_linear_4_983)"/>
<path d="M33.6719 9.13428V34.8657H28.2989V21.0495L25.4494 23.9284L24.351 25.0361L24.0557 25.3344L23.073 26.3261L22.3609 27.0437L18.7457 23.3922L16.2646 20.8871L10.8916 15.4601V9.13428H12.2283L17.3392 14.2957L22.3592 19.3712L32.4977 9.13428H33.6719ZM10.8916 20.808L16.2646 26.2221V34.8657H10.8916V20.808Z" fill="white"/>
</g>
<defs>
<linearGradient id="paint0_linear_4_983" x1="11.3907" y1="-1.54734e-06" x2="37.4831" y2="45.5364" gradientUnits="userSpaceOnUse">
<stop stop-color="#32B8D5"/>
<stop offset="0.151042" stop-color="#3ACDED"/>
<stop offset="0.479167" stop-color="#4DF7D8"/>
<stop offset="0.8" stop-color="#37DCFF"/>
<stop offset="1" stop-color="#18A5C4"/>
</linearGradient>
<clipPath id="clip0_4_983">
<rect width="43.5628" height="44" fill="white" transform="translate(0.5)"/>
</clipPath>
</defs>
</svg>
