<svg width="20" height="18" viewBox="0 0 20 18" fill="none" xmlns="http://www.w3.org/2000/svg">
<path d="M13.0293 12.1032L20 7.18521V16.0346C19.9987 16.3241 19.927 16.6097 19.79 16.8706L13.0293 12.1032ZM8.14286 11.2771L8.69357 10.8886C9.06814 10.6244 9.52745 10.4811 10 10.4811C10.4726 10.4811 10.9319 10.6244 11.3064 10.8886L11.8571 11.2771L19.2857 6.03613L11.3064 0.406649C10.9316 0.142936 10.4724 0 10 0C9.5276 0 9.06839 0.142936 8.69357 0.406649L0.714286 6.03613L8.14286 11.2771ZM0 7.18521V16.0346C0.00142234 16.3243 0.0729024 16.61 0.209286 16.8712L6.97071 12.1032L0 7.18521ZM10.435 11.927C10.3102 11.839 10.1571 11.7913 9.99964 11.7913C9.84218 11.7913 9.68912 11.839 9.56429 11.927L1.23071 17.8035C1.51479 17.931 1.82657 17.9982 2.14286 18H17.8571C18.1738 17.9978 18.486 17.9306 18.7707 17.8035L10.435 11.927Z" fill="white"/>
</svg>
