<svg width="25" height="24" viewBox="0 0 25 24" fill="none" xmlns="http://www.w3.org/2000/svg">
<g clip-path="url(#clip0_16_1940)">
<path d="M2 12.7348V21.7348C2 22.5628 2.6735 23.2348 3.5 23.2348H11V12.7348H2ZM23 6.7348H18.254C18.5945 6.5023 18.887 6.2713 19.091 6.0643C20.3015 4.8478 20.3015 2.8678 19.091 1.6513C17.915 0.466297 15.866 0.469297 14.6915 1.6513C14.0405 2.3038 12.3155 4.9603 12.554 6.7348H12.446C12.683 4.9603 10.958 2.3038 10.3085 1.6513C9.1325 0.469297 7.0835 0.469297 5.909 1.6513C4.7 2.8678 4.7 4.8478 5.9075 6.0643C6.113 6.2713 6.4055 6.5023 6.746 6.7348H2C1.1735 6.7348 0.5 7.4083 0.5 8.2348V10.4848C0.5 10.8988 0.836 11.2348 1.25 11.2348H11V8.2348H14V11.2348H23.75C24.164 11.2348 24.5 10.8988 24.5 10.4848V8.2348C24.5 7.4083 23.828 6.7348 23 6.7348ZM10.9115 6.6853C10.9115 6.6853 10.8485 6.7348 10.634 6.7348C9.5975 6.7348 7.619 5.6578 6.9725 5.0068C6.344 4.3738 6.344 3.3418 6.9725 2.7088C7.277 2.4028 7.6805 2.2348 8.1095 2.2348C8.537 2.2348 8.9405 2.4028 9.245 2.7088C10.256 3.7258 11.261 6.3238 10.9115 6.6853ZM14.3645 6.7348C14.1515 6.7348 14.0885 6.6868 14.0885 6.6853C13.739 6.3238 14.744 3.7258 15.755 2.7088C16.3595 2.0983 17.417 2.0953 18.0275 2.7088C18.6575 3.3418 18.6575 4.3738 18.0275 5.0068C17.381 5.6578 15.4025 6.7348 14.3645 6.7348ZM14 12.7348V23.2348H21.5C22.328 23.2348 23 22.5628 23 21.7348V12.7348H14Z" fill="black"/>
</g>
<defs>
<clipPath id="clip0_16_1940">
<rect width="24" height="24" fill="white" transform="translate(0.5)"/>
</clipPath>
</defs>
</svg>
