<svg width="22" height="23" viewBox="0 0 22 23" fill="none" xmlns="http://www.w3.org/2000/svg">
<path d="M10.0948 0.928374C10.4547 0.161619 11.5453 0.16162 11.9052 0.928375L14.4815 6.41656C14.6231 6.71814 14.9055 6.92941 15.2348 6.98002L21.0777 7.87805C21.882 8.00166 22.2098 8.98286 21.6413 9.56506L17.3527 13.9573C17.1309 14.1845 17.0302 14.5036 17.0813 14.8169L18.0844 20.9672C18.2188 21.7911 17.3441 22.4073 16.6136 22.0033L11.4839 19.1667C11.1828 19.0001 10.8172 19.0001 10.5161 19.1667L5.38645 22.0033C4.65589 22.4073 3.78118 21.7911 3.91557 20.9672L4.91872 14.8169C4.96983 14.5036 4.86909 14.1845 4.64727 13.9573L0.358694 9.56506C-0.209758 8.98286 0.118038 8.00166 0.922287 7.87805L6.76518 6.98002C7.09447 6.92941 7.37692 6.71814 7.51849 6.41656L10.0948 0.928374Z" fill="#E8E8E8"/>
</svg>
